<?xml version="1.0" encoding="UTF-8" standalone="no"?>
<!-- Created with Inkscape (http://www.inkscape.org/) -->

<svg
   width="400"
   height="400"
   viewBox="0 0 105.83333 105.83333"
   version="1.1"
   id="svg5"
   xml:space="preserve"
   xmlns="http://www.w3.org/2000/svg"
   xmlns:svg="http://www.w3.org/2000/svg"><defs
     id="defs2" /><g
     id="layer1"
     transform="translate(-24.722393,-11.893707)"
     style="opacity:1"><path
       style="opacity:1;fill:#ed2f00;fill-opacity:1;stroke:none;stroke-width:1.55102;stroke-linecap:round;stroke-linejoin:round"
       d="m 83.619768,20.550339 c -0.879186,0.143858 -1.773528,0.318131 -2.58058,0.695396 -1.064266,0.497501 -1.818808,1.53187 -2.886084,2.022882 -0.433797,0.199574 -0.923862,0.242055 -1.387606,0.355857 -0.38767,0.09513 -0.777763,0.180142 -1.165915,0.273289 -0.4632,0.111157 -0.925315,0.226786 -1.387818,0.340801 -0.298844,0.07367 -0.602675,0.129619 -0.896332,0.221815 -0.275258,0.08642 -0.538045,0.208481 -0.808242,0.309622 -0.640467,0.239742 -1.292413,0.449226 -1.926853,0.70449 -0.482956,0.194315 -0.94505,0.438376 -1.429469,0.629013 -0.283184,0.111442 -0.575782,0.197368 -0.862125,0.300421 -0.732535,0.263632 -1.462391,0.534818 -2.189462,0.813164 -0.8143,0.311739 -1.612256,0.666431 -2.433417,0.959621 -0.554939,0.198137 -1.118723,0.371148 -1.683359,0.539679 -0.623373,0.18606 -1.260041,0.32637 -1.881004,0.520322 -0.610969,0.19083 -1.208254,0.422992 -1.813102,0.632415 -0.876735,0.303561 -1.762092,0.582826 -2.632282,0.90467 -0.246368,0.09112 -0.488852,0.192433 -0.732561,0.290447 -0.2542,0.102233 -0.509117,0.202821 -0.761084,0.310442 -0.821244,0.350771 -1.627583,0.735584 -2.44617,1.09251 -0.439846,0.191784 -0.884693,0.371955 -1.324585,0.563629 -0.21478,0.09358 -0.435999,0.17452 -0.641896,0.286302 -0.54741,0.297188 -1.054667,0.663661 -1.567933,1.016559 -0.459809,0.316143 -0.920406,0.633268 -1.35321,0.985479 -0.431009,0.350749 -1.029618,0.603628 -1.234736,1.120078 -0.223259,0.562126 0.0017,1.220481 0.141249,1.80901 0.07603,0.320729 0.251075,0.609561 0.373739,0.915505 0.144695,0.360895 0.299188,0.718273 0.427287,1.085387 0.159618,0.457443 0.314209,0.91833 0.424551,1.39009 0.0678,0.289883 0.08568,0.589534 0.145033,0.881265 0.102285,0.502812 0.226231,1.001382 0.363305,1.495845 0.169565,0.611671 0.351976,1.220655 0.567442,1.817704 0.143863,0.398641 0.313552,0.787656 0.483481,1.175903 0.250849,0.573129 0.525352,1.135617 0.791001,1.702039 0.605274,1.290574 1.234417,2.569976 1.829348,3.865352 0.263487,0.573703 0.514961,1.15285 0.770622,1.730084 0.220829,0.498591 0.434123,1.00054 0.659345,1.497163 0.09632,0.212396 0.197401,0.422605 0.295913,0.633995 0.271094,0.581725 0.551424,1.159255 0.812242,1.745659 0.193183,0.434337 0.364942,0.877979 0.557318,1.312674 0.09132,0.20634 0.198718,0.405609 0.283293,0.614803 0.07593,0.187809 0.137377,0.381208 0.200726,0.573624 0.125711,0.381828 0.238914,0.767668 0.355816,1.152285 0.134474,0.442432 0.268063,0.885151 0.397538,1.329073 0.151317,0.518813 0.299555,1.038545 0.443281,1.559513 0.31085,1.126743 0.570492,2.267804 0.906322,3.387356 0.463823,1.546239 0.979391,3.077382 1.529943,4.594907 0.354755,0.977835 0.712797,1.9566 1.141941,2.904149 0.549716,1.213772 1.231835,2.363208 1.831293,3.5532 0.691156,1.372022 1.392995,2.739512 2.035337,4.135054 0.412623,0.896457 0.762197,1.820868 1.167456,2.720678 0.229053,0.508574 0.513118,0.992981 0.714252,1.513229 0.109711,0.283778 0.15297,0.590742 0.266961,0.872829 0.09739,0.241017 0.232464,0.465092 0.354054,0.694855 0.149604,0.282697 0.319435,0.554673 0.461892,0.841038 0.189331,0.380592 0.282135,0.812386 0.521176,1.163891 0.200541,0.294892 0.413184,0.641066 0.747383,0.765521 0.456063,0.169837 0.981404,-0.01017 1.454781,-0.123092 2.303419,-0.549481 4.388089,-1.782019 6.586956,-2.661027 1.594767,-0.637517 3.202382,-1.242996 4.791232,-1.895119 1.322811,-0.54293 2.615377,-1.159167 3.947232,-1.679516 0.459372,-0.179475 0.928278,-0.333545 1.393563,-0.497083 0.720384,-0.2532 1.438377,-0.5138 2.164654,-0.749567 1.274147,-0.41362 2.576752,-0.737424 3.845864,-1.166245 0.621717,-0.210071 1.221608,-0.481737 1.844438,-0.688485 0.479149,-0.159054 0.968936,-0.284074 1.454011,-0.424017 0.59809,-0.172548 1.206156,-0.31283 1.795755,-0.512472 1.317099,-0.445976 2.612957,-0.958959 3.881791,-1.527911 0.60388,-0.270785 1.17229,-0.615609 1.77189,-0.89576 0.39841,-0.186151 0.80665,-0.350523 1.21195,-0.521167 0.62983,-0.265183 1.26788,-0.510759 1.8955,-0.78115 0.44886,-0.193377 1.01087,-0.237609 1.33719,-0.601457 0.62662,-0.698689 0.78791,-1.742921 0.86972,-2.677871 0.0356,-0.406401 -0.0527,-0.821294 -0.17016,-1.211973 -0.1682,-0.559467 -0.50603,-1.053164 -0.75379,-1.582228 -0.63154,-1.348595 -1.20511,-2.724671 -1.86773,-4.058266 -0.56808,-1.143306 -1.26605,-2.220604 -1.80572,-3.377589 -0.43477,-0.932085 -0.8335,-1.884583 -1.15002,-2.863165 -0.2889,-0.89319 -0.42491,-1.829479 -0.67958,-2.733023 -0.22793,-0.80867 -0.48388,-1.609674 -0.75869,-2.403637 -0.22342,-0.645468 -0.48145,-1.278427 -0.723174,-1.91726 -0.338957,-0.895791 -0.652797,-1.80159 -1.019692,-2.686305 -0.413008,-0.995903 -0.920453,-1.95104 -1.329058,-2.948757 -0.221343,-0.540463 -0.398882,-1.097902 -0.6073,-1.643481 -0.25393,-0.664716 -0.522408,-1.323783 -0.783575,-1.98569 -0.67356,-1.707087 -1.344374,-3.415261 -2.020483,-5.121341 -0.802335,-2.024592 -1.639847,-4.035425 -2.416309,-6.070081 -0.502376,-1.316438 -0.977675,-2.643123 -1.450581,-3.970432 -0.251805,-0.706745 -0.480919,-1.421524 -0.738402,-2.12622 -0.132113,-0.361573 -0.287836,-0.714422 -0.413705,-1.078216 -0.182836,-0.528446 -0.331317,-1.068162 -0.495465,-1.602708 -0.291686,-0.94987 -0.31604,-2.02614 -0.869686,-2.851251 -0.44105,-0.657305 -1.114435,-1.183931 -1.839219,-1.502152 -0.496094,-0.217815 -1.067568,-0.208905 -1.608925,-0.230955 -0.240243,-0.0098 -0.482691,0.0052 -0.719978,0.04409 z"
       id="path1176" /><path
       style="opacity:1;fill:#ffffff;fill-opacity:1;stroke:none;stroke-width:1.55102;stroke-linecap:round;stroke-linejoin:round"
       d="m 73.142988,29.636393 c -0.154382,0.138179 -0.401732,0.108409 -0.607767,0.130236 -0.02878,0.003 -0.06009,-0.01108 -0.08683,0 -0.0189,0.0079 -0.02451,0.03558 -0.04341,0.04341 -0.0401,0.01661 -0.09012,-0.01662 -0.130234,0 -0.0189,0.0079 -0.02451,0.03558 -0.04341,0.04341 -0.0401,0.01661 -0.08798,-0.01 -0.130235,0 -0.09448,0.02231 -0.168654,0.09873 -0.260472,0.130236 -0.0698,0.02394 -0.147805,0.01795 -0.217061,0.04341 -0.139838,0.0514 -0.257804,0.149734 -0.390708,0.21706 -0.525629,0.266272 -1.064829,0.50551 -1.606246,0.738005 -0.07161,0.03075 -0.145547,0.05587 -0.21706,0.08683 -0.219816,0.09516 -0.437405,0.195833 -0.651183,0.303884 -0.161821,0.08179 -0.312969,0.18435 -0.477532,0.260472 -0.54879,0.253856 -1.139836,0.407161 -1.693069,0.651181 -0.118423,0.05223 -0.227211,0.125366 -0.347298,0.173649 -0.407677,0.163912 -0.844812,0.243881 -1.258948,0.390708 -0.146896,0.05209 -0.281079,0.144175 -0.434121,0.173648 -0.02842,0.0054 -0.05854,-0.0061 -0.08683,0 -0.170887,0.03702 -0.315471,0.151423 -0.477533,0.217061 -0.199389,0.08076 -0.415539,0.120493 -0.607769,0.21706 -0.04662,0.02342 -0.08302,0.06462 -0.130234,0.08683 -0.136706,0.06432 -0.291305,0.08096 -0.434123,0.130237 -0.337857,0.116564 -0.660852,0.273471 -0.998476,0.390708 -0.32865,0.114121 -0.683974,0.155155 -0.998478,0.303885 -0.04717,0.0223 -0.08337,0.0639 -0.130235,0.08683 -0.123322,0.06032 -0.261805,0.08302 -0.390711,0.130236 -0.439033,0.160822 -0.870389,0.342017 -1.30236,0.520945 -0.203633,0.08435 -0.402258,0.180806 -0.607768,0.260472 -0.328561,0.127367 -0.666134,0.230152 -0.998478,0.347296 -0.202887,0.07151 -0.395803,0.180344 -0.607768,0.21706 -0.02852,0.0049 -0.05866,-0.0067 -0.08683,0 -0.251934,0.05947 -0.457313,0.243827 -0.694593,0.347297 -0.339993,0.148261 -0.697688,0.252498 -1.041888,0.390708 -0.306807,0.123195 -0.611726,0.251602 -0.911654,0.390709 -0.117416,0.05446 -0.225906,0.128744 -0.347297,0.173648 -0.05596,0.0207 -0.118736,0.02008 -0.173648,0.04341 -0.125644,0.05338 -0.225555,0.155288 -0.347294,0.217061 -0.0695,0.03526 -0.150127,0.04692 -0.217061,0.08683 -0.09708,0.05788 -0.165886,0.155199 -0.260472,0.21706 -0.08124,0.05313 -0.191834,0.06159 -0.260473,0.130235 -0.02288,0.02288 -0.022,0.06256 -0.04341,0.08683 -0.03453,0.03911 -0.09571,0.04771 -0.130235,0.08683 -0.128484,0.145547 -0.230784,0.329083 -0.260472,0.520944 -0.04257,0.275075 0.0337,0.563751 0.130234,0.824828 0.0766,0.20718 0.253875,0.364202 0.347298,0.564359 0.01935,0.04146 0.01935,0.09131 0.04341,0.130234 0.06455,0.104451 0.157236,0.193998 0.260473,0.260473 0.207903,0.133872 0.461494,0.17795 0.694593,0.260474 0.12941,0.04581 0.255201,0.108244 0.39071,0.130234 0.242825,0.03941 0.493199,0.02424 0.738003,0 0.220282,-0.02181 0.440034,-0.06379 0.651183,-0.130234 0.241063,-0.07587 0.468793,-0.190385 0.69459,-0.303886 0.208477,-0.104794 0.399599,-0.241895 0.607771,-0.347295 0.127151,-0.06438 0.263845,-0.108703 0.390707,-0.173648 0.178948,-0.09161 0.341998,-0.212276 0.520946,-0.303885 0.253724,-0.129891 0.520177,-0.233271 0.781415,-0.347298 0.808025,-0.352691 1.604993,-0.733858 2.431077,-1.041888 0.668929,-0.249431 1.361649,-0.429765 2.040367,-0.651181 0.522047,-0.170305 1.048174,-0.329468 1.562833,-0.520945 0.249343,-0.09277 0.477022,-0.252255 0.738005,-0.303884 0.04259,-0.0084 0.08771,0.0087 0.130236,0 0.215909,-0.04432 0.401745,-0.182143 0.607767,-0.260472 0.256639,-0.09757 0.526523,-0.158429 0.781419,-0.260472 0.252404,-0.101047 0.487513,-0.241596 0.738005,-0.347297 0.227822,-0.09613 0.462885,-0.174119 0.694593,-0.260472 0.390414,-0.1455 0.789875,-0.268357 1.172125,-0.434121 0.118745,-0.05149 0.221329,-0.14391 0.347296,-0.173647 0.02817,-0.0067 0.05913,0.0084 0.08683,0 0.04993,-0.01512 0.0803,-0.07171 0.130235,-0.08683 0.0277,-0.0084 0.05851,0.006 0.08683,0 0.139415,-0.02959 0.259036,-0.119109 0.390708,-0.173648 0.186211,-0.07714 0.381426,-0.132442 0.564357,-0.21706 0.164564,-0.07613 0.30975,-0.191734 0.477533,-0.260472 0.09748,-0.03994 0.213087,-0.03341 0.303883,-0.08683 0.03528,-0.02075 0.05251,-0.06452 0.08683,-0.08683 0.169,-0.109829 0.382272,-0.130635 0.564355,-0.21706 0.105397,-0.05003 0.200022,-0.120511 0.303885,-0.173649 0.155662,-0.07964 0.314782,-0.153148 0.477533,-0.217059 0.08519,-0.03345 0.182623,-0.03871 0.260473,-0.08683 0.03482,-0.02152 0.05308,-0.06366 0.08682,-0.08683 0.117479,-0.08069 0.273231,-0.09296 0.39071,-0.173649 0.03373,-0.02317 0.05201,-0.06531 0.08682,-0.08683 0.03893,-0.02406 0.08819,-0.02534 0.130237,-0.04341 0.226019,-0.09712 0.448048,-0.208538 0.65118,-0.347297 0.110165,-0.07525 0.238331,-0.144275 0.303885,-0.260472 0.04326,-0.07666 0.03372,-0.172985 0.04341,-0.260472 0.02872,-0.259288 0.09462,-0.525618 0.04341,-0.781417 -0.09783,-0.488651 -0.32381,-0.970036 -0.65118,-1.345774 -0.03428,-0.03934 -0.09571,-0.04771 -0.130235,-0.08683 -0.02141,-0.02425 -0.01865,-0.066 -0.04341,-0.08683 -0.115616,-0.09725 -0.286294,-0.09905 -0.434119,-0.130237 -0.114155,-0.02408 -0.242495,0.0079 -0.347299,-0.04341 -0.01838,-0.009 -0.02321,-0.04013 -0.04341,-0.04341 -0.06388,-0.01036 -0.131247,0.03794 -0.173648,0.08683 -10e-7,2e-6 0,5e-6 -2e-6,6e-6 z"
       id="path1534" /><path
       style="opacity:1;fill:#ffffff;fill-opacity:1;stroke:none;stroke-width:1.55102;stroke-linecap:round;stroke-linejoin:round"
       d="m 75.627933,37.122862 c -0.138865,0.0093 -0.269261,0.07257 -0.399059,0.122788 -0.179295,0.06937 -0.344724,0.170834 -0.521848,0.245576 -0.161095,0.06797 -0.325868,0.127138 -0.491152,0.184182 -0.192723,0.06651 -0.390003,0.119187 -0.583243,0.184181 -0.144179,0.04849 -0.283164,0.112878 -0.429758,0.153485 -0.05028,0.01393 -0.103401,0.01607 -0.153482,0.0307 -0.189695,0.0554 -0.374176,0.129808 -0.552548,0.214879 -0.07446,0.03551 -0.139864,0.08846 -0.214876,0.122787 -0.167733,0.07677 -0.352585,0.110851 -0.521849,0.184181 -0.285558,0.123713 -0.545871,0.300187 -0.828819,0.429758 -0.200398,0.09177 -0.409483,0.163241 -0.613938,0.245575 -0.378952,0.152605 -0.760455,0.299153 -1.135788,0.460455 -0.227184,0.09763 -0.444133,0.219269 -0.675334,0.306971 -0.130127,0.04936 -0.267608,0.07707 -0.399061,0.122786 -0.186653,0.06491 -0.364221,0.154983 -0.552544,0.214881 -0.120613,0.03836 -0.246844,0.0567 -0.368363,0.09209 -0.03107,0.009 -0.06069,0.0229 -0.09209,0.0307 -0.0604,0.01501 -0.124096,0.01446 -0.184182,0.0307 -0.306384,0.08278 -0.591242,0.231187 -0.890213,0.337667 -0.426747,0.151987 -0.86149,0.280711 -1.289273,0.429757 -0.113099,0.03941 -0.228508,0.07351 -0.337666,0.12279 -0.116854,0.05275 -0.221663,0.12958 -0.337665,0.184181 -0.348993,0.164268 -0.707385,0.311085 -1.074395,0.429758 -0.08029,0.02596 -0.164941,0.03654 -0.245575,0.06139 -0.197997,0.06102 -0.386949,0.148577 -0.583241,0.21488 -0.131856,0.04453 -0.26987,0.07103 -0.399061,0.122787 -0.04248,0.01702 -0.07987,0.04551 -0.122787,0.06139 -0.07914,0.02928 -0.166439,0.03212 -0.245577,0.06139 -0.04291,0.01588 -0.08051,0.04388 -0.122788,0.06139 -0.239156,0.09906 -0.493662,0.15654 -0.736727,0.245577 -0.258703,0.09477 -0.50333,0.228468 -0.767424,0.30697 -0.05001,0.01487 -0.103659,0.01522 -0.153485,0.03069 -0.07442,0.02311 -0.142563,0.06306 -0.214877,0.09209 -0.324516,0.130308 -0.652653,0.251659 -0.982305,0.368365 -0.183014,0.06479 -0.372629,0.111226 -0.552544,0.184182 -0.284156,0.115223 -0.551958,0.267266 -0.828819,0.399058 -0.173585,0.08263 -0.364562,0.135032 -0.521848,0.245577 -0.02368,0.01664 -0.03868,0.04346 -0.06139,0.06139 -0.122568,0.09681 -0.276494,0.148766 -0.399062,0.245577 -0.03406,0.02691 -0.05199,0.07548 -0.09209,0.09209 -0.0095,0.0039 -0.02091,-0.003 -0.0307,0 -0.03531,0.01069 -0.06356,0.038 -0.09209,0.06139 -0.04477,0.0367 -0.08004,0.08376 -0.122787,0.122789 -0.177037,0.161674 -0.3923,0.282123 -0.552545,0.460454 -0.09863,0.109767 -0.179334,0.236494 -0.245576,0.368363 -0.06828,0.135927 -0.09378,0.289848 -0.153484,0.429757 -0.01796,0.04209 -0.04988,0.0785 -0.06139,0.12279 -0.05674,0.218083 -0.09929,0.460684 -0.03069,0.675333 0.09097,0.284664 0.344496,0.491495 0.552545,0.70603 0.05563,0.05737 0.117298,0.109743 0.184181,0.153485 0.0383,0.02505 0.08849,0.03111 0.122789,0.06139 0.02766,0.02442 0.03374,0.06767 0.06139,0.09209 0.102915,0.09085 0.235053,0.151406 0.368363,0.184182 0.536657,0.131945 1.113608,0.127885 1.657635,0.0307 0.44332,-0.0792 0.845878,-0.310916 1.258576,-0.491153 0.343897,-0.150188 0.665432,-0.34966 1.012998,-0.491152 0.08991,-0.0366 0.186153,-0.05601 0.276272,-0.09209 0.178477,-0.07145 0.344355,-0.171717 0.521851,-0.245573 0.110575,-0.04601 0.229,-0.07243 0.337664,-0.12279 0.07485,-0.03469 0.137623,-0.09386 0.21488,-0.122787 0.04886,-0.01829 0.103876,-0.01454 0.153485,-0.0307 0.2786,-0.09075 0.52974,-0.25078 0.798121,-0.368363 0.537826,-0.235632 1.07873,-0.464989 1.62694,-0.675334 0.172222,-0.06608 0.348504,-0.121096 0.521847,-0.184181 0.492922,-0.179389 0.997674,-0.33167 1.473454,-0.552544 0.265929,-0.123454 0.507138,-0.294813 0.767424,-0.429758 0.231599,-0.120071 0.476255,-0.214142 0.70603,-0.337666 0.157655,-0.08475 0.300104,-0.196736 0.460453,-0.276272 0.04936,-0.02449 0.103219,-0.03881 0.153486,-0.06139 0.146105,-0.06561 0.289794,-0.137018 0.429757,-0.214877 0.136493,-0.07592 0.248776,-0.203038 0.399062,-0.245576 0.01969,-0.0055 0.04147,0.0047 0.06139,0 0.04453,-0.01052 0.08268,-0.03937 0.122789,-0.06139 0.0523,-0.02871 0.09928,-0.06716 0.153483,-0.09209 0.08819,-0.04056 0.185771,-0.05699 0.276275,-0.09209 0.09395,-0.03644 0.180233,-0.09226 0.276272,-0.122789 0.04972,-0.01581 0.104135,-0.01377 0.153485,-0.0307 0.06492,-0.02228 0.120307,-0.06696 0.184182,-0.09209 0.168727,-0.06638 0.348839,-0.09923 0.521848,-0.153485 0.216123,-0.06778 0.428007,-0.148733 0.644635,-0.214878 0.182824,-0.05583 0.370495,-0.09519 0.552547,-0.153485 0.114061,-0.03652 0.222337,-0.09048 0.337664,-0.122787 0.05024,-0.01408 0.103658,-0.01523 0.153485,-0.0307 0.3721,-0.115574 0.707271,-0.329932 1.074395,-0.460454 0.07018,-0.02495 0.147265,-0.03013 0.214878,-0.06139 0.03348,-0.01548 0.05912,-0.04483 0.09209,-0.06139 0.135928,-0.06828 0.289148,-0.09545 0.429757,-0.153483 0.177707,-0.07334 0.344142,-0.172231 0.521849,-0.245576 0.140609,-0.05804 0.289849,-0.09378 0.429758,-0.153485 0.08418,-0.03593 0.162086,-0.0853 0.245575,-0.122787 0.301602,-0.135439 0.610465,-0.254646 0.92091,-0.368365 0.09115,-0.03339 0.193697,-0.04105 0.276272,-0.09209 0.01231,-0.0076 0.01733,-0.02517 0.0307,-0.0307 0.0189,-0.0079 0.04692,0.01447 0.06139,0 0.0073,-0.0073 -0.0062,-0.02253 0,-0.0307 0.04486,-0.05947 0.145453,-0.03439 0.214878,-0.06139 0.06397,-0.02488 0.148097,-0.03371 0.184184,-0.09209 0.0053,-0.0087 -0.0073,-0.02346 0,-0.0307 0.01447,-0.01447 0.04692,0.01447 0.06139,0 0.0073,-0.0073 -0.0053,-0.02199 0,-0.03069 0.03609,-0.05839 0.125118,-0.05712 0.184182,-0.09209 0.139214,-0.08243 0.274848,-0.172608 0.399061,-0.276273 0.07776,-0.0649 0.167082,-0.125569 0.214878,-0.214878 0.04923,-0.09201 0.06387,-0.20265 0.06139,-0.30697 -0.009,-0.379593 -0.128535,-0.75531 -0.276272,-1.10509 -0.09833,-0.232806 -0.178284,-0.521652 -0.399061,-0.644636 -0.01788,-0.01 -0.04249,0.0079 -0.06139,0 -0.02674,-0.01108 -0.03875,-0.04337 -0.06139,-0.06139 -0.07554,-0.06009 -0.170033,-0.09339 -0.245576,-0.153484 -0.02265,-0.01802 -0.03754,-0.04501 -0.06139,-0.06139 -0.08307,-0.05705 -0.181545,-0.0884 -0.276272,-0.122787 -0.210061,-0.07626 -0.428303,-0.240238 -0.644635,-0.184181 -0.05603,0.01452 -0.06766,0.105123 -0.122789,0.122787 -2e-6,10e-7 -4e-6,-1e-6 -6e-6,-1e-6 z"
       id="path1649" /><path
       style="opacity:1;fill:#ffffff;fill-opacity:1;stroke:none;stroke-width:1.55102;stroke-linecap:round;stroke-linejoin:round"
       d="m 72.782294,46.46826 c -1.469589,0.25769 -2.796187,1.042644 -4.205107,1.533605 -1.26542,0.440957 -2.553409,0.816037 -3.81492,1.268059 -1.539692,0.551699 -3.085516,1.096034 -4.57951,1.761622 -0.623224,0.277653 -1.308298,0.482044 -1.823957,0.928805 -0.494861,0.428742 -1.168526,0.951859 -1.13159,1.605573 0.03689,0.652822 0.694377,1.228076 1.303461,1.465885 0.838615,0.327428 1.815917,-0.04265 2.687446,-0.268306 2.811655,-0.727994 5.322542,-2.326917 8.000661,-3.45078 1.350351,-0.56667 2.787601,-0.948546 4.067647,-1.659916 0.484178,-0.269075 1.123225,-0.467721 1.345661,-0.97502 0.210019,-0.478981 0.104606,-1.121829 -0.183654,-1.558219 -0.240071,-0.363437 -0.712846,-0.537317 -1.1336,-0.649954 -0.171475,-0.0459 -0.357692,-0.03201 -0.532538,-0.0014 z"
       id="path1651" /><path
       style="opacity:1;fill:#ffffff;fill-opacity:1;stroke:none;stroke-width:1.55102;stroke-linecap:round;stroke-linejoin:round"
       d="m 81.087394,19.825269 c 0.398392,0.07933 0.02053,0.823769 -0.08683,1.215537 -0.0171,0.06241 -0.07195,0.110665 -0.08682,0.173649 -0.113033,0.478842 0,0.984006 0,1.476009 0,1.157655 0,2.315309 0,3.472964 0,1.447068 0,2.894137 0,4.341205 0,0.723534 0.01291,1.447185 0,2.170604 -0.01447,0.810746 -0.06155,1.620594 -0.08683,2.431075 -0.07852,2.517569 -0.167827,5.035126 -0.201396,7.553695 -0.0047,0.347267 0.127636,0.718898 0,1.041891 -0.01457,0.03688 -0.06675,0.04995 -0.08132,0.08683 -0.116999,0.296076 5.64e-4,0.63671 0,0.955063 -8.73e-4,0.492006 -0.0044,0.984005 -0.0052,1.476011 -9.69e-4,0.549885 0,1.099772 0,1.649658 0,0.8393 0,1.6786 0,2.5179 0,0.434119 0.04983,0.871109 0,1.30236 -0.01365,0.118112 -0.06768,0.229184 -0.08133,0.347296 -0.0166,0.143751 0.03144,0.292871 0,0.434122 -0.01388,0.06239 -0.06744,0.111259 -0.08132,0.173648 -0.08802,0.395502 0.03134,0.811572 0,1.215536 -0.0136,0.175225 -0.06774,0.34572 -0.08133,0.520945 -0.02239,0.288547 0.06288,0.58574 0,0.868241 -0.01388,0.06239 -0.06744,0.11126 -0.08132,0.17365 -0.106884,0.480253 0.07417,0.989628 0,1.476009 -0.01371,0.08992 -0.06761,0.170553 -0.08133,0.260472 -0.048,0.314717 0,0.636711 0,0.955066 0,0.694593 0,1.389186 0,2.083779 0,0.839299 -0.149637,1.692046 0,2.517899 0.02755,0.152055 0.135105,0.282065 0.162656,0.43412 0.01548,0.08543 -0.0546,0.192974 0,0.260473 0.08718,0.107755 0.268482,0.07578 0.406645,0.08682 0.568224,0.04542 1.138054,-0.07235 1.707907,-0.08682 0.189707,-0.0048 0.385211,0.04606 0.569304,0 0.05962,-0.01492 0.104333,-0.06745 0.162657,-0.08683 0.182166,-0.06054 0.37789,-0.07232 0.569302,-0.08683 0.243288,-0.01845 0.489322,0.02561 0.731961,0 0.137837,-0.01455 0.269672,-0.06562 0.406644,-0.08682 0.296083,-0.04582 0.595361,-0.07234 0.894619,-0.08683 0.270778,-0.01311 0.621595,0.191694 0.813288,0 0.286506,-0.286505 0.01263,-0.810556 0,-1.215538 -0.01356,-0.434755 0.09108,-0.90302 -0.08133,-1.302361 -0.01571,-0.0364 -0.06675,-0.04994 -0.08132,-0.08682 -0.18083,-0.457568 0,-0.984007 0,-1.476011 0,-1.186596 0,-2.373192 0,-3.559788 0,-0.578828 -0.08725,-1.164269 0,-1.736484 0.01371,-0.08992 0.06761,-0.170554 0.08132,-0.260473 0.03926,-0.257496 -0.05659,-0.527165 0,-0.781415 0.01389,-0.06239 0.06744,-0.111258 0.08133,-0.173648 0.100609,-0.452 0,-0.926124 0,-1.389185 0,-1.128714 0,-2.257429 0,-3.386143 0,-3.328257 0.01958,-6.656571 0,-9.98477 -0.01447,-2.460145 -0.07236,-4.919905 -0.08683,-7.380049 -0.0052,-0.897168 -0.08841,-1.798732 0,-2.691548 0.04362,-0.440563 0.216849,-0.861799 0.260473,-1.302362 0.01711,-0.172803 -0.01895,-0.348333 0,-0.520944 0.02911,-0.265233 0.144532,-0.516185 0.173648,-0.781418 0.01579,-0.143842 -0.01193,-0.289906 0,-0.434119 0.01452,-0.175444 0.06358,-0.346443 0.08683,-0.520946 0.0384,-0.288311 0.07234,-0.577744 0.08683,-0.86824 0.03604,-0.722637 0.03279,-1.447812 0,-2.170603 -0.01448,-0.31934 -0.07234,-0.635726 -0.08683,-0.955065 -0.0026,-0.05782 0.04093,-0.132719 0,-0.173649 -0.26604,-0.26604 -0.752475,0 -1.128712,0 -1.012949,0 -2.027854,-0.06294 -3.038845,0 -0.232882,0.0145 -0.461309,0.09159 -0.694593,0.08683 -0.352014,-0.0072 -0.86028,0.127987 -1.041888,-0.173647 -10e-7,-2e-6 0,-6e-6 10e-7,-6e-6 z"
       id="path1653" /><path
       style="opacity:1;fill:#ffffff;fill-opacity:1;stroke:none;stroke-width:1.55102;stroke-linecap:round;stroke-linejoin:round"
       d="m 80.479624,64.800157 c 0.962581,0.398714 2.086402,0.07386 3.12567,0 0.204131,-0.01451 0.403636,-0.07232 0.607768,-0.08683 0.20208,-0.01437 0.420599,0.07753 0.607767,0 0.03782,-0.01567 0.04901,-0.07116 0.08683,-0.08683 0.187168,-0.07753 0.410598,0.04654 0.607768,0 0.06298,-0.01487 0.110666,-0.07195 0.173651,-0.08682 0.112668,-0.02659 0.233024,0.01854 0.347295,0 0.09034,-0.01466 0.175918,-0.0518 0.260472,-0.08683 0.05979,-0.02477 0.118597,-0.120851 0.173648,-0.08683 0.02462,0.01522 0,0.05788 0,0.08683 0,0.115766 0.0072,0.231756 0,0.347298 -0.0145,0.232881 0.08811,0.54017 -0.08682,0.69459 -0.0217,0.01915 -0.06636,-0.02046 -0.08683,0 -0.06139,0.06139 0.01995,0.175972 0,0.260473 -0.01487,0.06298 -0.05788,0.115767 -0.08683,0.17365 -0.08683,0.173647 -0.193112,0.338859 -0.26047,0.520943 -0.0828,0.223833 -0.05606,0.486914 -0.173651,0.694593 -0.04033,0.07123 -0.142322,0.09802 -0.173648,0.173648 -0.02215,0.05348 0.02215,0.120173 0,0.17365 -0.01566,0.03781 -0.0643,0.05265 -0.08683,0.08682 -0.0858,0.130112 -0.144173,0.281079 -0.173647,0.434121 -0.0054,0.02842 0.0067,0.05866 0,0.08683 -0.05947,0.251935 -0.287821,0.442659 -0.347295,0.694594 -0.0133,0.05633 0.01545,0.117865 0,0.173647 -0.04505,0.162632 -0.182019,0.28471 -0.260473,0.434121 -0.162577,0.309611 -0.318883,0.624897 -0.43412,0.955065 -0.03932,0.112664 -0.02804,0.243458 -0.08683,0.347298 -0.04033,0.07123 -0.125784,0.107241 -0.173648,0.173648 -0.264876,0.367496 -0.154871,1.205697 -0.607768,1.215538 -0.595799,0.01294 -0.590214,-1.035727 -0.868243,-1.562837 -0.09057,-0.17172 -0.215866,-0.331991 -0.26047,-0.520942 -0.0133,-0.05633 0.01677,-0.118251 0,-0.173651 -0.06048,-0.199743 -0.286819,-0.321198 -0.347298,-0.520942 -0.01677,-0.0554 0.0183,-0.118737 0,-0.173651 -0.04577,-0.13728 -0.214713,-0.210014 -0.260473,-0.347294 -0.0183,-0.05492 0.01545,-0.117865 0,-0.173648 -0.04505,-0.162632 -0.215425,-0.271488 -0.260472,-0.434121 -0.01545,-0.05578 0.01452,-0.117617 0,-0.173649 -0.07474,-0.288443 -0.359378,-0.492973 -0.434121,-0.781416 -0.01452,-0.05603 0.02215,-0.120171 0,-0.173647 -0.03132,-0.07563 -0.133315,-0.102417 -0.173646,-0.173651 -0.05879,-0.103839 -0.04543,-0.235378 -0.08683,-0.347294 -0.08981,-0.24278 -0.263285,-0.449746 -0.347295,-0.694594 -0.0479,-0.139585 -0.0172,-0.304008 -0.08683,-0.43412 -0.01931,-0.03609 -0.08027,-0.04642 -0.08682,-0.08683 -0.03109,-0.191638 0.06884,-0.489845 0.26047,-0.520943 4e-6,-10e-7 5e-6,7e-6 8e-6,8e-6 z"
       id="path1655" /><path
       style="opacity:1;fill:none;fill-opacity:1;stroke:#7e7e7e;stroke-width:1.47097;stroke-linecap:round;stroke-linejoin:round;stroke-opacity:1"
       d="m 48.948073,95.982376 c -0.215216,0.0034 -0.425504,0.07275 -0.640479,0.08734 -0.290458,0.01971 -0.582253,0 -0.87338,0 -0.329943,0 -0.664149,0.05285 -0.989831,0 -0.03029,-0.0048 -0.05705,-0.02419 -0.08734,-0.02912 -0.114947,-0.01866 -0.233297,0.0096 -0.349352,0 -0.05883,-0.0048 -0.115849,-0.02423 -0.174676,-0.02911 -0.386847,-0.03201 -0.776339,0 -1.164508,0 -0.09704,0 -0.194098,0.0016 -0.291126,0 -0.281548,-0.0048 -0.567131,0.02077 -0.844267,-0.02912 -0.03021,-0.0054 -0.05705,-0.02418 -0.08734,-0.02911 -0.114946,-0.01865 -0.2329,0 -0.349351,0 -0.378466,0 -0.75693,0 -1.135394,0 -0.300832,0 -0.609713,0.06913 -0.902494,0 -0.02112,-0.0049 -0.03698,-0.02469 -0.05822,-0.02912 -0.180748,-0.03769 -0.422756,-0.101613 -0.553141,0.02912 -0.137229,0.137591 -0.02426,0.387988 -0.02912,0.582254 -0.01285,0.514164 -0.05067,1.031152 0,1.542972 0.0098,0.09848 0.04847,0.192644 0.05822,0.291125 0.0047,0.04828 -0.0042,0.09722 0,0.145565 0.01948,0.225708 0.09697,0.443886 0.11645,0.669594 0.01586,0.183693 -0.01307,0.369208 0,0.553129 0.0048,0.06838 0.02425,0.135348 0.02911,0.203794 0.02751,0.387191 -0.01934,0.776831 0,1.164511 0.0097,0.19482 0.0485,0.38745 0.05822,0.58227 0.02224,0.44582 0,0.89277 0,1.33917 0,0.24261 0.0093,0.48539 0,0.72781 -0.0097,0.25287 -0.04851,0.50406 -0.05822,0.75693 -0.01117,0.29092 0.03558,0.58444 0,0.87338 -0.0048,0.0397 -0.02422,0.0768 -0.02911,0.11647 -0.01067,0.0867 0.0078,0.17502 0,0.262 -0.0098,0.10806 -0.04434,0.21264 -0.05822,0.32024 -0.01619,0.12548 -0.0041,0.25444 -0.02911,0.37846 -0.0061,0.0301 -0.02419,0.057 -0.02912,0.0874 -0.0171,0.10537 0.0082,0.21381 0,0.32024 -0.0097,0.12727 -0.04496,0.25152 -0.05822,0.37847 -0.01817,0.17399 0.04225,0.3643 -0.02911,0.52403 -0.0056,0.0125 -0.02387,0.0165 -0.02912,0.0291 -0.02598,0.0628 -0.04804,0.15575 0,0.20379 0.01372,0.0138 0.03882,0 0.05822,0 0.04852,0 0.09704,0 0.145564,0 0.135859,0 0.271718,0 0.407578,0 0.378464,0 0.756999,-0.008 1.135393,0 0.75735,0.0145 1.51344,0.0728 2.27079,0.0873 0.679171,0.0131 1.358591,0 2.037888,0 0.378464,0 0.75693,0 1.135394,0 0.203788,0 0.4084,0.0183 0.611366,0 0.108057,-0.01 0.212182,-0.0485 0.320239,-0.0582 0.08699,-0.009 0.200257,0.0618 0.262015,0 0.0069,-0.007 -0.0069,-0.0223 0,-0.0291 0.06175,-0.0617 0.220314,0 0.262014,0"
       id="path2079" /><path
       style="opacity:1;fill:none;fill-opacity:1;stroke:#7e7e7e;stroke-width:1.47097;stroke-linecap:round;stroke-linejoin:round;stroke-opacity:1"
       d="m 40.563622,101.89226 c 1.250792,0.0481 2.504502,0.0337 3.755535,0.0873 0.155428,0.007 0.310308,0.0243 0.465803,0.0291 0.106695,0.004 0.214014,-0.0104 0.32024,0 0.04924,0.005 0.09632,0.0243 0.145563,0.0291 0.444218,0.044 0.892833,0.007 1.339183,0 0.349453,-0.005 0.699826,4.7e-4 1.048057,-0.0291 0.136743,-0.0117 0.271955,-0.0373 0.407578,-0.0582 0.05833,-0.009 0.12308,0.0226 0.174676,-0.0291"
       id="path2144" /><path
       style="opacity:1;fill:none;fill-opacity:1;stroke:#7e7e7e;stroke-width:1.47097;stroke-linecap:round;stroke-linejoin:round;stroke-opacity:1"
       d="m 52.703609,99.563244 c -0.0017,0.254618 0.04851,0.504056 0.05822,0.756926 0.01191,0.3103 0,0.62107 0,0.93161 0,0.24261 0.01341,0.48558 0,0.72781 -0.0243,0.43872 -0.121264,0.87136 -0.145562,1.31007 -0.01073,0.19379 0,0.38818 0,0.58226 0,0.53374 0,1.06746 0,1.60119 0,0.25231 0,0.50462 0,0.75693 0,0.10675 0.01305,0.2143 0,0.32024 -0.0048,0.0397 -0.02422,0.0767 -0.02912,0.11645 -0.01661,0.13485 0.03123,0.27536 0,0.40758 -0.0049,0.0212 -0.02414,0.0371 -0.02912,0.0582 -0.02454,0.10389 0.04083,0.22162 0,0.32024 -0.0052,0.0127 -0.02387,0.0165 -0.02911,0.0291 -0.05196,0.12553 0,0.28312 0,0.40758"
       id="path2146" /><path
       style="opacity:1;fill:none;fill-opacity:1;stroke:#7e7e7e;stroke-width:1.47097;stroke-linecap:round;stroke-linejoin:round;stroke-opacity:1"
       d="m 52.965623,101.83403 c 0.539644,-0.40036 0.894442,-0.99744 1.426521,-1.3974 0.358422,-0.26943 0.739972,-0.538971 1.171304,-0.661484 0.379398,-0.107759 0.802385,-0.152552 1.182296,-0.04657 0.344768,0.09614 0.656473,0.325634 0.896224,0.591394 0.255166,0.28284 0.43322,0.6445 0.528215,1.0134 0.106252,0.41261 0.01325,0.85213 0.03014,1.27786 0.01319,0.33275 0.03827,0.66492 0.05561,0.99748 0.02379,0.45646 0.05536,0.91268 0.06643,1.36964 0.02327,0.96043 -0.123481,1.9294 0,2.88215 0.0031,0.0242 -8.61e-4,0.0562 0.01866,0.0708 0.0023,0.002 0.0064,-0.002 0.0084,-2.1e-4 0.0043,0.004 0.002,0.0168 0.002,0.0168"
       id="path2148" /><path
       style="opacity:1;fill:none;fill-opacity:1;stroke:#7e7e7e;stroke-width:1.47097;stroke-linecap:round;stroke-linejoin:round;stroke-opacity:1"
       d="m 58.526146,102.09605 c 0.200325,-0.28103 0.486365,-0.4871 0.698703,-0.75693 0.02164,-0.0275 0.03451,-0.0615 0.05822,-0.0874 0.201297,-0.21845 0.468134,-0.36585 0.698703,-0.55315 0.05883,-0.0478 0.114221,-0.0998 0.174677,-0.14556 0.178204,-0.13474 0.356051,-0.27327 0.553141,-0.37846 0.0922,-0.0492 0.197496,-0.07 0.291128,-0.11645 0.05069,-0.0251 0.09436,-0.06326 0.145563,-0.08735 0.158293,-0.07445 0.329439,-0.117904 0.494916,-0.174684 0.145132,-0.04979 0.286827,-0.112644 0.436689,-0.145562 0.08583,-0.01887 0.174182,-0.03196 0.262014,-0.02912 0.334871,0.01062 0.717582,-0.02058 0.989831,0.174678 0.377597,0.270848 0.474149,0.801148 0.669591,1.222738 0.05685,0.12262 0.107259,0.24884 0.145565,0.37846 0.106797,0.36139 0.193875,0.73146 0.232901,1.10629 0.01307,0.12547 0.0019,0.25232 0,0.37845 -0.0048,0.31066 0.02544,0.62575 -0.02911,0.93162 -0.0054,0.0302 -0.02277,0.0573 -0.02912,0.0873 -0.04234,0.20028 -0.0485,0.40688 -0.05822,0.61136 -0.0055,0.11632 0.0073,0.23314 0,0.34936 -0.0097,0.15617 -0.0485,0.30963 -0.05822,0.4658 -0.01568,0.25183 0.04042,0.50787 0,0.75693 -0.0048,0.0302 -0.02419,0.057 -0.02912,0.0873 -0.02643,0.16285 0.0049,0.33002 0,0.49491 -0.0097,0.32069 -0.05822,0.63844 -0.05822,0.96072"
       id="path2150" /><path
       style="opacity:1;fill:none;fill-opacity:1;stroke:#7e7e7e;stroke-width:1.47097;stroke-linecap:round;stroke-linejoin:round;stroke-opacity:1"
       d="m 77.303824,96.040603 c -1.216106,-0.01352 -2.426028,0.02426 -3.639085,0.02911 -0.339646,0.0014 -0.679333,-0.0049 -1.018944,0 -0.330051,0.0048 -0.659823,0.03631 -0.989831,0.02912 -0.398842,-0.0087 -0.79495,-0.07278 -1.193621,-0.08734 -0.436399,-0.01594 -0.87338,0 -1.31007,0 -0.106746,0 -0.244759,-0.07548 -0.32024,0 -0.01372,0.01372 8.06e-4,0.03884 0,0.05822 -0.0048,0.116755 -0.05122,0.234609 -0.02912,0.349355 0.0042,0.02131 0.02297,0.03741 0.02912,0.05822 0.02488,0.08427 0.02425,0.174274 0.02912,0.262016 0.0059,0.106582 0,0.213492 0,0.320237 0,0.359057 -0.01627,0.718483 0,1.077172 0.0048,0.107077 0.02426,0.213162 0.02912,0.320239 0.01891,0.416855 -0.03747,0.836259 0,1.251853 0.0097,0.108064 0.04848,0.212178 0.05822,0.320245 0.01046,0.11597 -0.0037,0.23295 0,0.34934 0.0048,0.1555 0.03287,0.31027 0.02912,0.46581 -0.0043,0.1757 -0.04453,0.34881 -0.05822,0.52403 -0.01666,0.21306 -0.02426,0.42682 -0.02912,0.64047 -0.0028,0.12612 0.0104,0.25274 0,0.37846 -0.0048,0.0588 -0.02215,0.11607 -0.02912,0.17469 -0.04821,0.40576 -0.07278,0.81437 -0.08734,1.22272 -0.01072,0.30064 0.0035,0.60168 0,0.9025 -0.0048,0.41736 -0.02426,0.83446 -0.02912,1.25184 -0.0021,0.18437 0.04238,0.3737 0,0.55314 -0.0049,0.0212 -0.02414,0.0371 -0.02911,0.0582 -0.03793,0.16056 -0.0082,0.33015 0,0.49492 0.0048,0.0974 0.02426,0.19372 0.02911,0.29113 0.0097,0.19385 -0.137239,0.44501 0,0.58225 0.02745,0.0275 0.07773,-0.003 0.116452,0 0.06845,0.005 0.13534,0.0243 0.203787,0.0291 0.106478,0.008 0.213626,-0.006 0.32024,0 0.292216,0.0146 0.581166,0.0727 0.873382,0.0873 0.213226,0.0106 0.427398,-0.0133 0.640477,0 0.07809,0.005 0.154814,0.0243 0.232902,0.0291 0.571441,0.0356 1.145099,0 1.717648,0 0.135859,0 0.271887,-0.007 0.407577,0 0.19481,0.01 0.387444,0.0485 0.582254,0.0582 0.368303,0.0184 0.737536,-0.004 1.106283,0 0.543502,0.005 1.086809,0.0243 1.63031,0.0291 0.174669,0.002 0.350394,0.0191 0.524028,0 0.08893,-0.01 0.174942,-0.0375 0.262013,-0.0582 0.03894,-0.009 0.116452,0.0266 0.116452,-0.0291"
       id="path2152" /><path
       style="opacity:1;fill:none;fill-opacity:1;stroke:#7e7e7e;stroke-width:1.47097;stroke-linecap:round;stroke-linejoin:round;stroke-opacity:1"
       d="m 68.977596,101.71758 c 0.640003,0.17066 0.696523,0.11684 1.048058,0.14556 0.387002,0.0316 0.776436,0.0422 1.164506,0.0291 0.525972,-0.0177 1.046376,-0.12127 1.572084,-0.14556 0.378063,-0.0175 0.757338,0.0175 1.135395,0 0.418634,-0.0194 0.837475,-0.0538 1.251845,-0.11647 0.186303,-0.0282 0.364763,-0.11244 0.553142,-0.11644 0.118029,-0.003 0.244392,0.005 0.349352,0.0582 0.01221,0.007 0.01643,0.0239 0.02911,0.0291 0.07172,0.0297 0.155847,-0.009 0.2329,0 0.07943,0.01 0.154812,0.0582 0.232901,0.0582"
       id="path2154" /><path
       style="opacity:1;fill:none;fill-opacity:1;stroke:#7e7e7e;stroke-width:1.47097;stroke-linecap:round;stroke-linejoin:round;stroke-opacity:1"
       d="m 87.231248,95.836816 c 0.01126,0.721076 0,1.455632 0,2.183448 0,0.329944 -0.03252,0.661494 0,0.989832 0.0048,0.04922 0.02424,0.09632 0.02912,0.145558 0.02295,0.231777 -0.02296,0.46694 0,0.698711 0.0048,0.04932 0.02424,0.09633 0.02912,0.145569 0.02008,0.202786 0,0.407576 0,0.611356 0,0.35906 0.0029,0.71813 0,1.07719 -0.0048,0.592 -0.02426,1.18385 -0.02912,1.77586 -0.0014,0.16497 0.0015,0.32995 0,0.49492 -0.0048,0.55321 -0.02426,1.10621 -0.02912,1.65942 -0.002,0.23288 0,0.4658 0,0.6987 0,0.44639 0,0.89279 0,1.33919 0,0.14556 -0.102928,0.33375 0,0.43668 0.01372,0.0137 0.03882,0 0.05822,0"
       id="path2156" /><path
       style="opacity:1;fill:none;fill-opacity:1;stroke:#7e7e7e;stroke-width:1.47097;stroke-linecap:round;stroke-linejoin:round;stroke-opacity:1"
       d="m 86.969233,101.63023 c -0.08181,-0.28084 -0.317707,-0.49399 -0.494916,-0.72781 -0.145597,-0.1921 -0.290619,-0.38756 -0.465802,-0.55314 -0.07053,-0.0667 -0.157754,-0.11327 -0.232901,-0.17467 -0.09049,-0.074 -0.168469,-0.16287 -0.262014,-0.232907 -0.07329,-0.05491 -0.155025,-0.09743 -0.232902,-0.145559 -0.174138,-0.107627 -0.330145,-0.254552 -0.524029,-0.320247 -0.175593,-0.05946 -0.367872,-0.06515 -0.553139,-0.05823 -0.108419,0.0038 -0.215975,0.02817 -0.320241,0.05823 -0.100443,0.02893 -0.188496,0.09669 -0.291128,0.116453 -0.02858,0.0057 -0.06044,-0.01119 -0.08734,0 -0.01269,0.0057 -0.01717,0.02238 -0.02912,0.02912 -0.06963,0.03945 -0.156886,0.03319 -0.232902,0.05823 -0.16948,0.05576 -0.329158,0.137805 -0.494915,0.203793 -0.125578,0.04998 -0.245573,0.120887 -0.378465,0.145567 -0.01908,0.004 -0.03974,-0.006 -0.05822,0 -0.317985,0.10189 -0.594169,0.33192 -0.815155,0.58224 -0.445412,0.50456 -0.65007,1.17883 -0.960719,1.77587 -0.04006,0.077 -0.08759,0.15105 -0.116449,0.23292 -0.07593,0.21542 -0.0936,0.44716 -0.145564,0.66958 -0.01821,0.078 -0.04703,0.15367 -0.05822,0.23291 -0.03803,0.26922 -0.01551,0.5436 -0.02911,0.81516 -0.01509,0.30107 -0.0969,0.60352 -0.05822,0.90248 0.0079,0.0609 0.04839,0.11409 0.05822,0.17468 0.0046,0.0287 -0.0059,0.0588 0,0.0873 0.01486,0.0724 0.06108,0.1347 0.08734,0.20379 0.03272,0.086 0.03893,0.18371 0.08734,0.26202 0.01443,0.0233 0.04311,0.0353 0.05822,0.0582 0.02877,0.0436 0.0339,0.0993 0.05822,0.14556 0.03258,0.0619 0.06968,0.12262 0.116452,0.17468 0.05065,0.0563 0.127611,0.0861 0.174676,0.14556 0.01347,0.017 0.01521,0.0415 0.02911,0.0582 0.09328,0.11175 0.239384,0.16665 0.349352,0.26202 0.04147,0.0359 0.07283,0.0831 0.116452,0.11644 0.06218,0.0475 0.133395,0.0823 0.203787,0.11646 0.442625,0.21472 0.919929,0.35068 1.368297,0.55315 0.01978,0.009 0.0371,0.0242 0.05822,0.0291 0.03777,0.009 0.07867,-0.009 0.116449,0 0.02112,0.005 0.0371,0.0242 0.05822,0.0291 0.04722,0.0112 0.09705,-8.8e-4 0.145564,0 0.271848,0.005 0.54526,0.062 0.815155,0.0291 0.140257,-0.0171 0.270762,-0.0812 0.407575,-0.11646 0.125364,-0.0323 0.2554,-0.0471 0.378466,-0.0874 0.07025,-0.0229 0.131393,-0.0725 0.20379,-0.0873 0.02852,-0.006 0.05901,0.007 0.08734,0 0.06335,-0.015 0.11529,-0.0607 0.174675,-0.0874 0.143017,-0.0642 0.292075,-0.11413 0.43669,-0.17467 0.156333,-0.0654 0.325823,-0.10825 0.465804,-0.20379 0.03401,-0.0232 0.0555,-0.0613 0.08734,-0.0874 0.08117,-0.0666 0.192536,-0.096 0.262013,-0.17469 0.01436,-0.0162 0.01548,-0.0413 0.02912,-0.0582 0.03907,-0.0484 0.10425,-0.0701 0.145563,-0.11645 0.06087,-0.0684 0.09411,-0.15718 0.145565,-0.2329 0.128715,-0.18944 0.287997,-0.35781 0.407576,-0.55314 0.04532,-0.0741 0.04676,-0.16322 0.11645,-0.23291"
       id="path2158" /><path
       style="opacity:1;fill:none;fill-opacity:1;stroke:#7e7e7e;stroke-width:1.47097;stroke-linecap:round;stroke-linejoin:round;stroke-opacity:1"
       d="m 91.481698,95.953265 c 0.03996,0.167094 0.05822,0.296532 0.05822,0.465803"
       id="path2160" /><path
       style="opacity:1;fill:none;fill-opacity:1;stroke:#7e7e7e;stroke-width:1.47097;stroke-linecap:round;stroke-linejoin:round;stroke-opacity:1"
       d="m 91.510812,99.417676 c -0.109651,0.492787 -0.121274,0.988044 -0.145564,1.484744 -0.0066,0.1357 0.03123,0.27536 0,0.40758 -0.0049,0.0211 -0.02414,0.0371 -0.02912,0.0582 -0.03123,0.13223 -0.0028,0.27174 0,0.40757 0.0048,0.23306 0.02426,0.46565 0.02912,0.69872 0.0027,0.12613 -0.0063,0.25246 0,0.37845 0.0048,0.0974 0.02425,0.19372 0.02912,0.29113 0.0068,0.13569 -0.03123,0.27536 0,0.40758 0.0049,0.0211 0.02414,0.0371 0.02912,0.0582 0.03569,0.15111 0,0.31053 0,0.4658 0,0.32995 0.0045,0.65992 0,0.98984 -0.0048,0.35915 -0.02426,0.71801 -0.02912,1.07716 -0.0024,0.17467 0,0.34936 0,0.52403 0,0.21351 0,0.42699 0,0.64048 0,0.097 -0.02231,0.19669 0,0.29114 0.0049,0.0212 0.02414,0.0371 0.02912,0.0582 0.04015,0.17 0,0.3982 0,0.52402"
       id="path2162" /><path
       style="opacity:1;fill:none;fill-opacity:1;stroke:#7e7e7e;stroke-width:1.47097;stroke-linecap:round;stroke-linejoin:round;stroke-opacity:1"
       d="m 94.247402,99.563244 c 0.51018,-0.04628 1.028579,-0.02428 1.542973,-0.02912 0.12615,-9.2e-4 0.253942,-0.0202 0.378466,0 0.03029,0.0047 0.05705,0.02418 0.08734,0.02912 0.191574,0.0312 0.388832,-0.01603 0.582255,0 0.05883,0.0047 0.115846,0.02428 0.174675,0.02912 0.25145,0.02087 0.505478,0.02087 0.756923,0 0.05884,-0.0047 0.105322,-0.02912 0.174678,-0.02912"
       id="path2164" /><path
       style="opacity:1;fill:none;fill-opacity:1;stroke:#7e7e7e;stroke-width:1.47097;stroke-linecap:round;stroke-linejoin:round;stroke-opacity:1"
       d="m 95.761264,96.681083 c 0.005,0.32239 -0.02426,0.640368 -0.02912,0.960718 -0.0024,0.155249 0.0093,0.310812 0,0.465801 -0.01458,0.243911 -0.07276,0.483907 -0.08734,0.727817 -0.0058,0.09687 0.0048,0.194204 0,0.291129 -0.0048,0.0974 -0.002,0.197446 -0.02911,0.291128 -0.0061,0.02086 -0.02332,0.03737 -0.02912,0.05823 -0.03378,0.121934 -0.02425,0.252034 -0.02911,0.378468 -0.0052,0.135762 -0.0017,0.271746 0,0.407576 0.0048,0.37856 -0.0014,0.75803 0.02911,1.1354 0.01735,0.21477 0.06808,0.42587 0.08734,0.64047 0.03993,0.44504 0.04851,0.89249 0.05822,1.3392 0.0021,0.097 -0.0059,0.19426 0,0.29111 0.02431,0.40009 0.12126,0.79354 0.145564,1.19363 0.0053,0.0872 -0.0062,0.1749 0,0.26202 0.0097,0.13689 0.0485,0.27067 0.05822,0.40757 0.0089,0.12583 -0.04825,0.2619 0,0.37847 0.0052,0.0127 0.02341,0.0166 0.02911,0.0291 0.05655,0.12391 0.02426,0.27146 0.02912,0.40758 0.0046,0.12607 -0.01428,0.25312 0,0.37846 0.01465,0.12864 0.06687,0.25062 0.08734,0.37846 0.01695,0.10584 0.0014,0.21671 0.02912,0.32024 0.03592,0.13422 0.09521,0.26449 0.174677,0.37847 0.03924,0.0562 0.09704,0.097 0.145563,0.14556 0.05822,0.0582 0.100265,0.13941 0.174676,0.17468 0.264394,0.12529 0.582603,0.11976 0.87338,0.0873 0.09147,-0.0102 0.171139,-0.0726 0.262018,-0.0873 0.02877,-0.005 0.0604,0.0111 0.08734,0 0.01269,-0.006 -0.04854,-0.0291 0.02914,-0.0291"
       id="path2166" /><path
       style="opacity:1;fill:none;fill-opacity:1;stroke:#7e7e7e;stroke-width:1.47097;stroke-linecap:round;stroke-linejoin:round;stroke-opacity:1"
       d="m 104.61151,99.650581 c -0.10765,-0.149371 -0.34227,-0.145189 -0.52402,-0.174684 -0.0383,-0.0066 -0.0777,-9.2e-4 -0.11646,0 -0.47617,0.01451 -0.95317,0.03348 -1.42652,0.08735 -0.0586,0.0066 -0.11978,0.0076 -0.17467,0.02912 -0.0325,0.0129 -0.0571,0.04069 -0.0874,0.05823 -0.0563,0.03262 -0.11961,0.05254 -0.17467,0.08735 -0.0936,0.05899 -0.1736,0.137284 -0.26202,0.203794 -0.10548,0.07938 -0.2199,0.147149 -0.32024,0.232909 -0.0417,0.0357 -0.076,0.0795 -0.11645,0.11644 -0.056,0.0511 -0.12312,0.09 -0.17468,0.14558 -0.0568,0.0613 -0.0821,0.14953 -0.14556,0.20378 -0.0164,0.014 -0.0412,0.0157 -0.0582,0.0291 -0.0594,0.047 -0.0907,0.12248 -0.14556,0.17468 -0.0352,0.0334 -0.0862,0.0494 -0.11646,0.0873 -0.11911,0.1495 -0.16137,0.34676 -0.2329,0.52403 -0.0851,0.21066 -0.17014,0.42215 -0.2329,0.64047 -0.0384,0.13355 -0.0727,0.26941 -0.0874,0.40758 -0.0726,0.68518 -0.0313,1.37872 0,2.06701 0.005,0.10708 0.009,0.21508 0.0291,0.32024 0.0255,0.12951 0.0773,0.2524 0.11644,0.37847 0.0482,0.15536 0.0805,0.31667 0.14557,0.4658 0.0312,0.0717 0.0806,0.13423 0.11645,0.20378 0.0636,0.12351 0.10861,0.25624 0.17468,0.37846 0.0435,0.0805 0.0886,0.16126 0.14556,0.23291 0.0171,0.0215 0.04,0.0376 0.0582,0.0582 0.19754,0.22184 0.37845,0.45845 0.55314,0.6987 0.0206,0.0283 0.0348,0.0614 0.0582,0.0874 0.10131,0.11276 0.20683,0.23952 0.34936,0.29113 0.0182,0.007 0.0403,-0.008 0.0582,0 0.0254,0.0104 0.0359,0.0422 0.0582,0.0582 0.088,0.0635 0.19065,0.10465 0.29113,0.14556 0.23592,0.096 0.4787,0.17975 0.72781,0.23291 0.0859,0.0183 0.17581,0.0121 0.26202,0.0291 0.0693,0.0136 0.13382,0.0484 0.20378,0.0582 0.0481,0.007 0.0983,-0.0111 0.14556,0 0.0211,0.005 0.0371,0.0242 0.0582,0.0291 0.35887,0.0849 0.7656,0.14112 1.10628,0 0.0127,-0.006 0.0172,-0.0224 0.0291,-0.0291 0.13928,-0.0789 0.32477,-0.0408 0.4658,-0.11645 0.26633,-0.1429 0.48738,-0.37024 0.6696,-0.61137 0.0262,-0.0346 0.0348,-0.0798 0.0582,-0.11644 0.0335,-0.0524 0.0868,-0.091 0.11644,-0.14556 0.0147,-0.0269 0.013,-0.0613 0.0291,-0.0874 0.0144,-0.0233 0.0422,-0.0359 0.0582,-0.0582 0.0507,-0.0705 0.0764,-0.15587 0.11645,-0.23289 0.066,-0.12718 0.16876,-0.23955 0.20378,-0.37848 0.005,-0.0189 -0.005,-0.0394 0,-0.0582 0.0399,-0.16896 0.17269,-0.30299 0.23291,-0.46581 0.0278,-0.075 0.0316,-0.15741 0.0582,-0.2329 0.0462,-0.13105 0.13164,-0.24636 0.17468,-0.37846 0.0154,-0.047 0.0171,-0.0976 0.0291,-0.14556 0.0569,-0.22626 0.16944,-0.43883 0.20378,-0.6696 0.0129,-0.0864 0.004,-0.17477 0,-0.26201 -0.0194,-0.41863 -0.0302,-0.84173 -0.11644,-1.25185 -0.019,-0.0901 -0.0573,-0.17499 -0.0874,-0.26201 -0.0942,-0.27274 -0.14505,-0.56634 -0.29114,-0.81515 -0.0523,-0.089 -0.14014,-0.15172 -0.20379,-0.23291 -0.0731,-0.0932 -0.1393,-0.19175 -0.20378,-0.29112 -0.0924,-0.1424 -0.15755,-0.30289 -0.26202,-0.43669 -0.0339,-0.0433 -0.0823,-0.0735 -0.11644,-0.11646 -0.057,-0.0716 -0.0779,-0.17128 -0.14557,-0.2329 -0.016,-0.0146 -0.0429,-0.0138 -0.0582,-0.0291 -0.0307,-0.0307 -0.0328,-0.0813 -0.0582,-0.11646 -0.0802,-0.11135 -0.18243,-0.20733 -0.29112,-0.29112 -0.10678,-0.0823 -0.23396,-0.1341 -0.34936,-0.203794 -0.0783,-0.04732 -0.16125,-0.08858 -0.2329,-0.145568 -0.0214,-0.01707 -0.0359,-0.0422 -0.0582,-0.05823 -0.0705,-0.05074 -0.18728,-0.04268 -0.23291,-0.116447 -10e-6,-1e-5 1e-5,-1.9e-5 0,-2.9e-5 z"
       id="path2168" /><path
       style="opacity:1;fill:none;fill-opacity:1;stroke:#7e7e7e;stroke-width:1.47097;stroke-linecap:round;stroke-linejoin:round;stroke-opacity:1"
       d="m 111.13275,99.534119 c 0.0254,0.300586 0.0727,0.600621 0.0874,0.902511 0.005,0.0873 -0.006,0.17486 0,0.262 0.0146,0.21497 0.0727,0.42551 0.0874,0.64049 0.007,0.0968 -0.007,0.19432 0,0.29111 0.01,0.1369 0.0485,0.27069 0.0582,0.40758 0.0131,0.18393 0,0.36878 0,0.55315 0,0.25231 0.058,0.51138 0,0.75692 -0.005,0.0211 -0.0242,0.0371 -0.0291,0.0582 -0.0625,0.26442 0,0.54343 0,0.81515 0,0.35905 0,0.71812 0,1.07717 0,0.14556 0.0103,0.2915 0,0.43669 -0.0195,0.27379 -0.097,0.54137 -0.11645,0.81515 -0.004,0.0484 0.004,0.0972 0,0.14556 -0.0146,0.20535 -0.0727,0.40604 -0.0874,0.61137 -0.0117,0.16456 0.006,0.33002 0,0.49492 -0.005,0.15549 -0.0291,0.3214 -0.0291,0.4658"
       id="path2170" /><path
       style="opacity:1;fill:none;fill-opacity:1;stroke:#7e7e7e;stroke-width:1.47097;stroke-linecap:round;stroke-linejoin:round;stroke-opacity:1"
       d="m 111.39476,101.5429 c 0.0291,-0.0388 0.0589,-0.077 0.0874,-0.11645 0.0897,-0.12447 0.16369,-0.26066 0.262,-0.37846 0.12311,-0.14751 0.27802,-0.2657 0.40758,-0.40758 0.10223,-0.11193 0.18124,-0.24494 0.29114,-0.34936 0.0352,-0.0334 0.0947,-0.0439 0.11644,-0.0874 0.005,-0.009 -0.005,-0.0206 0,-0.0291 0.0774,-0.14177 0.33019,-0.12026 0.40758,-0.262022 0.005,-0.0085 -0.006,-0.02124 0,-0.02911 0.10766,-0.149376 0.34228,-0.145193 0.52403,-0.174688 0.0287,-0.0047 0.0604,0.0111 0.0873,0 0.0127,-0.0057 0.0164,-0.0239 0.0291,-0.02912 0.12552,-0.05207 0.2739,-0.02428 0.40757,0 0.24476,0.04439 0.48056,0.142519 0.69871,0.262025 0.0852,0.04657 0.18163,0.174675 0.2329,0.174675"
       id="path2172" /></g></svg>
